<?xml version="1.0" encoding="UTF-8" standalone="no"?>
<svg width="60px" height="60px" viewBox="0 0 60 60" version="1.1" xmlns="http://www.w3.org/2000/svg" xmlns:xlink="http://www.w3.org/1999/xlink" xmlns:sketch="http://www.bohemiancoding.com/sketch/ns">
    <!-- Generator: Sketch 3.2.2 (9983) - http://www.bohemiancoding.com/sketch -->
    <title>Tickets</title>
    <desc>Created with Sketch.</desc>
    <defs></defs>
    <g id="stroked" stroke="none" stroke-width="1" fill="none" fill-rule="evenodd" sketch:type="MSPage">
        <g id="Activities" sketch:type="MSLayerGroup" transform="translate(-854.000000, -1438.000000)" stroke="#535353" stroke-width="2" stroke-linejoin="round">
            <g id="Tickets" transform="translate(858.000000, 1443.000000)" sketch:type="MSShapeGroup">
                <path d="M51,30.4545455 L51,25 L4,25 L4,30.4545455 L0,30.4545455 L0,43.5454545 L4,43.5454545 L4,49 L51,49 L51,43.5454545 L55,43.5454545 L55,30.4545455 L51,30.4545455 Z" id="Rectangle-1168" stroke-linecap="round"></path>
                <path d="M14,27 L14,47.0997505" id="Line" stroke-linecap="square" stroke-dasharray="4"></path>
                <path d="M22,31 L37,31" id="Line" stroke-linecap="square"></path>
                <path d="M22,35 L42,35" id="Line" stroke-linecap="square"></path>
                <path d="M22,39 L26,39" id="Line" stroke-linecap="square"></path>
                <path d="M30,39 L34,39" id="Line" stroke-linecap="square"></path>
                <path d="M44.5123247,27 L18.3337688,0.821444055 L14.4768227,4.67839013 L11.6483956,1.84996301 L2.39172498,11.1066336 L5.2201521,13.9350607 L1.36320602,17.7920068 L10.5711992,27 L44.5123247,27 Z" id="Rectangle-1170" stroke-linecap="round"></path>
                <path d="M16.5660018,6.23134663 L16.5660018,26.3310972" id="Line-272" stroke-linecap="square" stroke-dasharray="4" transform="translate(16.566002, 16.731347) rotate(-315.000000) translate(-16.566002, -16.731347) "></path>
            </g>
        </g>
    </g>
</svg>